<?xml version="1.0"?><svg version="1.2" baseProfile="tiny-ps" viewBox="0 0 300 300" xmlns="http://www.w3.org/2000/svg" xmlns:xlink="http://www.w3.org/1999/xlink"><title>はるはるTV</title><g><g fill="#fff" transform="matrix(.1 0 0 -.1 0 300)"><path d="M0 1500V0h3000v3000H0V1500z"/></g><g fill="#e0d8d0" transform="matrix(.1 0 0 -.1 0 300)"><path d="m311 1575-12-94 6-44c4-24 10-49 15-57l8-12 12 4c7 2 20 25 30 50l17 46-7 12-8 13-11-7-11-7v35c0 19 5 58 11 87l11 51-13 9c-8 5-19 9-25 9h-12l-11-95zm169 61v-36h-80v-40l18-2c9-1 28-2 42-2l25-1 3-37 3-38h-71l-16-25-16-25 16-25 16-25h90l12 20 12 19 19-17 18-16 9 14c16 24 12 35-20 53l-30 18v87l30 6 30 6v43l-31-7-30-6 3 33 3 32-27 3-28 3v-35zm5-206c-3-5-15-10-26-10h-19v20h51l-6-10zm276 229c-64-11-65-11-56-39l7-21 16 5c9 3 31 8 47 12l30 6-67-69c-67-68-78-86-58-98l10-6 40 31 40 32 39 5 38 5 17-23c20-29 20-43 1-63l-15-15-25 25-24 24h-48l-16-18c-22-24-21-45 1-65l19-17h101l31 26 31 26v40c0 51-12 72-50 88l-30 12-21-5-22-6 43 44 43 44-13 16-12 15-22-1c-11-1-45-5-75-10zm39-239c0-5-6-10-14-10s-18 5-21 10l-6 10h41v-10zm231 160-12-91 7-48c3-27 10-54 14-61l8-13 15 6 14 5 12 47 12 46-7 10-6 10-12-16-12-17 7 75c4 42 10 86 14 98l7 21-13 9c-8 5-19 9-25 9h-11l-12-90zm169 56v-36h-80v-39l43-3 42-3 3-37 3-38h-67l-12-12-12-12v-54l15-12 14-12h75l17 20 16 21 17-17 17-17 9 15c15 23 12 30-20 48l-30 17v93l31 6 31 6-4 17-4 18-26-2-27-2-3 32-3 32-22 3-23 3v-35zm6-199 7-7-17-6c-9-3-23-3-32 0l-15 6 6 10 6 10 19-3c11-2 22-6 26-10zm319 228c-5-2-32-6-58-10l-48-6 3-22 3-22 15 1c8 1 31 4 50 8l35 7-67-66c-67-66-80-89-55-98l12-4 38 29 37 30 39 5 38 5 17-23c20-30 20-53 0-70l-16-13-17 21c-10 11-27 24-40 28l-22 7-24-16-25-16v-37l18-16 19-17h102l26 23 27 23 5 44 5 45-27 25-26 25-42-1-42-2 48 43 47 43-16 16c-14 15-36 19-59 11zm-7-243 4-12h-21c-21 0-27 11-14 24 9 9 26 2 31-12zm192 223v-25h80v-240h50v239l43 3 42 3v40l-107 3-108 3v-26zm234 10c3-9 19-64 36-123s35-117 40-129l10-23h59l17 58c9 31 27 91 40 132s24 80 24 87v13h-25c-14 0-25-3-25-6 0-16-52-200-59-207l-7-7-29 110-28 110h-59l6-15zM341 1213l1-38 5 14 5 13 10-13 10-14 5 14 5 13 9-13 9-14v76l-10-6c-5-3-10-13-10-21s-4-14-10-14c-5 0-10 6-10 14s-4 18-10 21l-10 6 1-38zm79 22-12-14 7-21 7-21 21 3 22 3 6 30 5 30 8-32c10-42 21-42 35-1 13 37 6 52-8 17l-10-24-6 21-7 21-28 1-29 1-11-14zm37-29c-4-9-11-16-17-16h-10v18c0 10 3 22 7 26l7 6 9-9 10-10-6-15zm86 9v-40l4 23c2 12 2 30 0 40l-5 17 1-40zm17 1v-34l62-1h62l8 12 8 12 9-15c16-24 22-6 10 28-14 40-26 41-34 2l-7-30h-19l6 10 6 10h-33l11 13 11 14-7 6c-13 14-24 6-34-23l-11-30h-14c-17 0-18 17-1 23l12 5-12 1c-19 1-16 19 5 24l17 5-27 1-28 1v-34zm177 26-9-13 6-25 7-25 22 3 22 3 3 33 3 32h-21v-60h-19l-3 33-3 32-8-13zm63-27v-36l23 3 22 3v60l-22 3-23 3v-36zm35 0v-18l-12-4-13-5v54l13-4 12-5v-18zm25 0v-35h20v70h-20v-35zm37 28c-4-3-7-19-7-35v-28h48l5 19 4 18-9 17c-9 16-29 21-41 9zm33-34v-19h-9c-15 0-23 19-17 36l6 15 10-6c5-3 10-15 10-26zm50 23c0-8 8-21 18-28l17-14-17 6-18 6v-10c0-15 15-18 61-14l39 4v17l1 16 10-17c5-10 14-18 19-18h10v67h-70l-70 1v-16zm156 10c-11-10-6-49 7-59l12-10 50 7c28 4 42 8 33 9-20 1-25 21-5 21h12l-15 10-15 10h18c9 0 17 4 17 10v9h-54c-30-1-57-4-60-7zm44-22 15-10-15-10c-22-15-30-12-30 10s8 25 30 10zm100 14v-15l11 7 11 6-18-27-18-28 32 5c18 3 35 2 37-2 2-3 21-4 42-2l39 4-4 33-4 33-36-1-37-1-7-10-8-11v25h-40v-16zm67-36-5-13v50l5-12c2-7 2-19 0-25zm43 12v-20h-20v40h20v-20zm-70-10c0-5-5-10-11-10h-10l6 10c3 6 8 10 11 10 2 0 4-4 4-10zm108 25c-14-30-9-36 32-41l31-4-15 16c-9 8-16 24-16 35v19h-10c-6 0-16-11-22-25z"/></g><g fill="#99bfdc" transform="matrix(.1 0 0 -.1 0 300)"><path d="M315 1591c-9-100-9-141 0-180l7-31h34l12 46 12 45-6 10-6 10-14-18-13-18v20c0 11 6 56 14 100 8 43 13 80 12 81s-12 4-23 8l-22 7-7-80zm171 45 6-36h-39c-44 0-54-5-46-26l5-14h78v-80h-26c-14 0-34-5-45-10l-19-11v-58l19-11c11-5 33-10 50-10h30l20 22 20 21 15-12 15-13 11 7c17 11 11 23-20 42l-30 17v94l31 7 30 7-3 16-4 17-26-3-27-3-3 33-3 33-23 3-23 4 7-36zm4-200c0-17-24-28-45-20-29 12-12 31 28 33l17 1v-14zm272 221-63-11 3-15 4-16 49 3 48 2-19-21c-10-12-41-43-69-70l-50-48 12-12 12-12 47 32 47 31h66l15-16 16-15v-57l-17-6-16-7-22 21-21 20h-51l-17-19-16-18 6-17c9-24 37-36 81-36h38l32 19 32 20 7 46 7 47-26 25-25 25h-87l47 43 47 43-18 16c-10 9-22 15-27 14-5 0-37-6-72-11zm36-234 4-13h-42v31l17-3c9-2 18-9 21-15zm237 170c-8-91-8-92-6-115l1-18h30v28c0 15 7 58 15 96s14 70 12 72c-1 1-12 5-24 8l-21 7-7-78zm170 43 7-35-44-3-43-3v-30l43-3 42-3v-89h40v90l25 6 25 6v38l-24-6-25-6-3 34-3 33-23 3-23 4 6-36zm277 21-63-10 3-16 4-16 49 3 50 2-68-68c-37-37-67-71-67-75 0-15 43-6 78 18l37 25h74l11-20 11-20h39v14c0 8-12 24-27 36l-28 22-45-5-44-5 48 46 49 46-10 15c-13 20-23 21-101 8zm228-7v-20h80v-150h21l-5-9-6-9 16-6c22-8 25-8 23 7-1 6-1 47 0 90l1 77h80v40h-210v-20zm240 8c0-7 10-46 21-85l22-73h37l-1 23c0 12-8 49-17 82l-17 60-23 3-22 3v-13zm176 4c-4-7-32-112-39-148-2-10-6-26-10-34-3-8-8-23-11-32-3-10-9-18-14-18h-8l1 28v27l-22 3-23 3v-31h35l-15-10-15-10h21l-1-27v-28l23-3 23-4 15 12 14 12v28c0 14 3 30 7 34 4 3 8 12 9 19s13 48 28 92c14 44 26 83 26 87 0 10-37 10-44 0zm-976-192-15-10h23c12 0 25 0 29-1 4 0 9 4 11 10l4 11h-19c-10 0-25-5-33-10zm-120-45c0-7 3-20 6-29l6-16h38v55l-25 1-25 2v-13zm90-8c0-7 5-18 12-25l12-12h75l16 16 16 17-10 10-9 9-30-10-29-10-14 9c-8 5-20 9-26 9h-13v-13zm146-2c4-8 12-15 19-15s15 7 19 15l5 15h-48l5-15zm289 4c-27-4-65-5-82-2l-33 5v-10c0-6 10-18 22-26l22-16h77l29 15c29 15 38 30 23 37-5 2-30 1-58-3zm235-14v-25h50v50h-50v-25zM341 1215l1-40 10 28 10 29-11 11-11 11 1-39zm45 20-5-15 9-22 9-23v38c1 39-3 47-13 22zm35-4-11-20 6-15 6-16h39l6 16 6 17-10 15c-5 9-14 17-21 20l-11 3-10-20zm36-7 6-15-12-12-12-12-8 14c-10 16-4 41 10 41 5 0 12-7 16-16zm110 19c-4-3-7-19-7-35v-28l23 1 22 1-17 5c-10 2-18 8-18 13s8 11 18 13l17 5-17 1c-10 0-18 5-18 10s8 12 18 14l17 5-16 1c-9 0-19-2-22-6zm53-18c-13-34-6-45 27-45h26l-15 18c-9 9-13 22-11 29 2 6-1 14-6 18l-11 6-10-26zm20-25c0-5-4-10-10-10-5 0-10 5-10 10 0 6 5 10 10 10 6 0 10-4 10-10zm160 14v-35l23 3 22 3 3 24 4 24-14 8c-7 5-19 9-25 9h-13v-36zm38-2 3-22h-31v52l13-4c6-3 13-14 15-26zm56 24c-3-8-4-23-2-33l3-18h40v60l-18 3-17 3-6-15zm36-27v-19h-30v18c0 10 3 22 6 25 11 10 24-3 24-24zm53 26-6-16 19-15 19-16-17 6-18 5v-19h50v31l-15 5c-8 4-15 10-15 15v8l17-6 16-6-7 11c-4 7-14 12-22 12h-15l-6-15zm60-20v-40l4 23c2 12 2 30 0 40l-5 17 1-40zm28-2 1-38 7 25 7 25 8-22c4-13 12-23 17-23h9l-1 38-1 37-7-25-7-25-8 23c-4 12-12 22-17 22h-9l1-37zm63 23c-3-8-4-23-2-33l3-18 19-3 18-4 12 12 11 12-22-7-23-6v20c0 11 5 23 10 26l10 6v-22l10 6 10 6-5 10c-4 5-15 9-26 9h-20l-5-14zm66-21v-35l28 1 27 2-22 4c-27 5-31 23-5 24h17l-20 9-20 9h18c9 1 17 6 17 11v10h-40v-35zm86 26-6-9 12-5 13-4-19-22-19-21h58l-12 8-12 8 8 13 9 14 7-22 7-22 16 3 17 3 3 24 4 23-11 11-10 10-15-12-14-12-7 11c-8 12-22 13-29 1zm61-43-5-13v50l5-12c2-7 2-19 0-25zm44 52c-1-3-3-19-4-36l-2-32 52 2 52 1-15 8-14 8v49h-9c-5 0-14-13-21-30-16-39-28-38-33 3-2 17-5 30-6 27zm-907-30c3-14 6-28 6-32 0-20 19-5 29 22l10 31-9-6c-6-4-10-14-10-23l-1-17-15 25-15 25 5-25zm58-10v-35l5 18c2 9 2 25 0 35l-5 17v-35zm148 21c0-5 6-12 13-14l12-5-17-1-18-1v-35l9 14 9 15 16-13 16-13-11 31c-10 29-29 43-29 22zm51-18-1-33h38l6 16c3 9 6 23 5 32l-1 17-7-24c-4-14-12-26-18-28l-12-4-4 28-4 28-2-32zm131-3v-35l5 18c2 9 2 25 0 35l-5 17v-35zm-512-15c0-8 5-15 10-15 6 0 10 7 10 15s-4 15-10 15c-5 0-10-7-10-15z"/></g><g fill="#b69a8a" transform="matrix(.1 0 0 -.1 0 300)"><path d="m488 1633-3-38-35-1c-34-1-40-4-40-24v-10h80v-87l-24 4-24 5-21-11-21-12v-58l19-11c11-5 33-10 50-10h30l20 22 20 21 15-12 15-13 11 7c17 11 11 22-22 43l-32 20-2 39-2 38 10 13c6 6 19 12 29 12h19v29l-27 3-28 3 3 24 4 24-14 8c-22 15-27 10-30-28zm2-197c0-17-24-28-45-20-29 12-12 31 28 33l17 1v-14zm315 224c-16-4-47-8-67-9-39-1-44-6-30-29l8-12 47 9 46 8-9-16c-5-9-36-43-69-75l-60-59 5-9c9-13 21-9 53 18 17 14 43 29 58 33l28 8 47-13 48-12-10 19-11 19-25 6-25 6-32-6-32-6 49 49 49 50-13 16c-7 8-15 14-19 14-3-1-19-5-36-9zm405-31v-39h-80v-30h80v-10c0-5 7-10 15-10h15v30h60v30h-62l5 29 6 29-19 5-20 5v-39zm320 31c-14-4-44-8-67-9l-43-1v-7c0-5 4-14 9-22l9-13 18 5c11 3 32 8 48 12l29 6-17-26c-25-38-16-39 32-4 45 33 48 39 30 57-13 13-13 13-48 2zm-1204-17c-16-58-22-182-11-231l7-32h34l12 46 12 45-6 10-6 10-14-18-13-18v35c-1 19 5 63 13 98 13 64 12 72-10 72h-13l-5-17zm720 5c-3-7-7-39-10-70l-6-56 13-5 12-5-12-1-13-1v-50h30v43c0 23 6 66 13 95 8 28 12 54 9 57-10 10-33 5-36-7zm664-3v-15h88l5-12 4-13 22 13 21 12h70v30h-210v-15zm242 3 5-13 22-3 23-4-4 14-5 13-22 3-23 4 4-14zm178 2c0-5 7-10 15-10s15 5 15 10c0 6-7 10-15 10s-15-4-15-10zm-920-155v-25h42l-6 16c-3 9-6 20-6 25s-7 9-15 9h-15v-25zm225 14 5-8-22-3c-12-2-23-9-26-15l-4-13h44l24 19 24 19-25 4-24 5 4-8zm157-6 3-18 23-3 22-3v10c0 10-31 31-45 31-4 0-5-8-3-17zm406 0c7-3 16-2 19 1 4 3-2 6-13 5l-19-1 13-5zm-1118-38v-33l-17-6-16-7-22 21-21 20h-51l-17-19-18-19 11-20c13-24 32-32 79-32h37l31 19 31 19 7 32c9 46 8 47-14 53l-20 5v-33zm-83-40c3-9 3-18 1-21-9-9-38 8-38 22v14h31l6-15zm993 65c0-5 5-10 11-10h10l-5-9-6-9 16-6c22-8 22-9 22 19v25h-48v-10zm292-2c-5-7-11-22-13-32-2-11-10-21-18-24l-14-5 7 12 7 11-6 20-6 20h-39v-30h35l-15-10-15-10h22l-1-22-1-23 32-3 32-3 6 28c4 15 11 40 15 56l9 27h-13c-8 0-18-6-24-12zm-932-18-15-10h23c12 0 25 0 29-1 4 0 9 4 11 10l4 11h-19c-10 0-25-5-33-10zm-120-45c0-7 3-20 6-29l6-16h38v55l-25 1-25 2v-13zm90-10v-14l19-11c11-5 33-10 49-10h29l17 19 17 19-11 7-12 7-25-13-24-13-19 12c-26 16-40 15-40-3zm150 0c7-8 16-15 20-15s10 7 14 15l5 15h-51l12-15zm295 7-40-3-7-12-7-11-24 13c-14 7-31 11-38 9l-13-4 22-22 22-22h81l29 15c50 26 39 42-25 37zm225-12v-20h50v40h-50v-20zM341 1215v-40l10 23 9 24-10 16-9 17v-40zm45 20-5-15 9-22 9-23v38c1 39-3 47-13 22zm33-6-11-21 15-16 15-15 16 6 16 6v19c0 18-18 42-32 42-4 0-12-10-19-21zm39-17 3-22h-14c-17 0-26 19-19 38l4 13 12-4c6-2 12-13 14-25zm109 31c-4-3-7-19-7-35v-28l23 1 22 1-17 5c-10 2-18 8-18 13s8 11 18 13l17 5-17 1c-10 0-18 5-18 10s8 12 18 14l17 5-16 1c-9 0-19-2-22-6zm56-9-7-18 12-4c7-2 12-8 12-14v-10l-16 6-15 6 6-10c3-6 18-10 32-10h26l-15 18c-9 9-13 22-11 29 2 6-1 14-7 18l-10 6-7-17zm177-20v-35l23 3 22 3 3 24 4 24-14 8c-7 5-19 9-25 9h-13v-36zm38-2 3-22h-31v52l13-4c6-3 13-14 15-26zm56 24c-3-8-4-23-2-33l3-18h40v60l-18 3-17 3-6-15zm36-21v-25h-30v18c0 20 8 32 22 32h8v-25zm54 23-7-11 16-12c10-7 17-16 17-20v-7l-15 6-15 5v-19h19c11 0 23 5 27 12l7 11-16 12c-22 16-22 26 0 18l16-6-7 11c-9 15-33 15-42 0zm59-23v-40l4 23c2 12 2 30 0 40l-5 17 1-40zm28-2 1-38 7 25 7 25 8-22c4-13 12-23 17-23h9l-1 38-1 37-7-25-7-25-8 23c-4 12-12 22-17 22h-9l1-37zm63 13-6-25 7-10c8-14 42-14 51 0l7 11-23-7-22-7 4 24 3 23 19-3 18-3-7 10c-3 6-15 11-25 11h-20l-6-24zm66-11v-35l28 1 27 2-22 4c-27 5-31 23-5 24h17l-20 8-19 8 19 11 20 11-22 1h-23v-35zm86 26-6-9 12-5 13-4-19-22-19-21h58l-15 10-15 9 12 12 11 11 7-22 7-21 16 3 17 3 3 24 4 23-11 11-10 10-15-12-14-12-7 11c-8 12-22 13-29 1zm61-43-5-13v50l5-12c2-7 2-19 0-25zm44 52c-1-3-3-19-4-36l-2-32 52 2 52 1-15 8-14 8v49h-9c-5 0-14-13-21-30-16-39-28-38-33 3-2 17-5 30-6 27zm-906-30c2-14 5-28 5-32 0-20 19-5 29 22 12 35 5 41-8 8l-9-23-11 25-12 25 6-25zm57-10v-35l5 18c2 9 2 25 0 35l-5 17v-35zm148 21c0-5 6-12 13-14l12-5-17-1-18-1v-21l10 6 11 7 14-12 15-12-11 31c-10 29-29 43-29 22zm51-18-1-33h38l6 16c3 9 6 23 5 32l-1 17-7-24c-4-14-12-26-18-28l-12-4-4 28-4 28-2-32zm-381-18c0-8 5-15 10-15 6 0 10 7 10 15s-4 15-10 15c-5 0-10-7-10-15z"/></g><g fill="#5897c4" transform="matrix(.1 0 0 -.1 0 300)"><path d="m488 1633-3-38h-75v-35h80v-90h31l-6 9-5 10 10 6 11 7-6 19-7 20 12 14c7 8 21 15 31 15h19v29l-27 3-28 3 3 24 4 24-14 8c-22 15-27 10-30-28zm319 30-27-4 5-10 6-9-23-2c-13 0-33 0-45 1l-23 2 6-16c7-17 5-17 62-6 23 5 42 6 42 4 0-3-30-36-66-73l-66-69 24 6c12 2 30 7 38 9l14 5-14 10-15 11 19-6 19-6 11 9c13 11 14 11 61 11h35v23l-46-6-46-5 48 49 47 48-13 16c-7 8-15 14-19 14-3-1-18-4-34-6zm403-34v-39h-80v-30h80v-10c0-5 7-10 15-10h15v30h60v30h-62l5 29 6 29-19 5-20 5v-39zm320 31c-14-4-44-8-67-9l-43-1v-7c0-5 4-14 9-22l9-13 18 5c11 3 32 8 48 12l29 6-17-26c-25-38-16-39 32-4 45 33 48 39 30 57-13 13-13 13-48 2zm-1204-16c-4-10-10-60-13-112l-6-95 11 7 12 7v-10c0-6-4-11-9-11h-8l5-25 4-25h33l11 45 11 46-8 4c-4 3-9-2-13-10l-5-15-15 6-15 6 9 16c8 15 32 147 31 169 0 5-6 9-14 11l-14 3-7-17zm720 4c-2-7-7-36-10-64l-5-51 12-12 11-11h-12c-7 0-12-5-12-11v-11l12 4 12 4 12 65c7 35 14 70 16 78l3 15-18 4-17 3-4-13zm664-3v-15h88l5-12 4-13 22 13 21 12h70v30h-210v-15zm242 3 5-13 22-3 23-4-4 14-5 13-22 3-23 4 4-14zm178 2c0-5 7-10 15-10s15 5 15 10c0 6-7 10-15 10s-15-4-15-10zM860 1516c0-2 11-6 25-8l24-5-5 8c-5 9-44 13-44 5zm352-13c2-9 9-18 16-21l12-4v42h-31l3-17zm223 6 5-8-22-4-23-4 30-1c17-1 36 2 43 7l14 8-26 5-25 5 4-8zm157-6 3-18 23-3 22-3v10c0 10-31 31-45 31-4 0-5-8-3-17zm211-10c9-2 23-2 30 0l12 5h-60l18-5zm197-18v-15h49l-5 15-6 15h-38v-15zm-1577-10-23-16v-18c0-10 8-25 18-34l19-17h22c27 0 61 17 61 31v9l-42-2-43-3v30l23 3 23 4-4 11c-6 18-30 19-54 2zm758-1 1-19 5 13c3 7 2 16-1 19-3 4-6-2-5-13zm871-37-33-10 4-11 4-11 31-3 32-3 1 8c0 4 2 16 4 26 4 19 3 19-43 4zm-1490-4-12-5 6-9c8-14 21-11 28 6l5 15-7-1c-4 0-13-3-20-6zm170-15 3-22 32-9 32-9 35 6 35 7 23 19 23 20-50-2-50-1-12-9-12-10-21 7c-11 3-20 11-20 16s-5 9-11 9h-10l3-22zm308-7v-19l18 2 17 3 3 16 3 17h-41v-19zm88 8-11-7 21-11c11-6 34-11 50-11h30l12 15c7 8 11 16 9 16-14 5-102 3-111-2zm152 1c0-5 5-10 10-10 6 0 10 5 10 10 0 6-4 10-10 10-5 0-10-4-10-10zm258-2c-18-3-45-4-60-1l-28 6v-11c0-16 34-32 70-32s100 25 100 38v10l-24-2c-14 0-40-4-58-8zm252-3v-15h50v30h-50v-15zm-806-166-7-12 24-19 24-20-24 6-24 5 11-11 11-11 15 6c22 9 20 28-4 34-11 3-20 10-20 15v10l16-6 15-6-6 10c-8 13-22 13-31-1zm59-24v-40l4 23c2 12 2 30 0 40l-5 17 1-40zm28 0 1-40 7 25 7 25 8-22c4-13 12-23 17-23h9l-1 38-1 37-8-30c-4-16-8-25-9-19 0 5-8 19-16 30l-14 19v-40zm69 20-12-14 7-21 6-20h39v19l-14-5-13-5-6 14c-3 8-2 20 3 27l8 13 12-8 13-8-7 11c-10 16-21 15-36-3zm60-20v-35l23 1 22 1-17 5c-21 5-23 19-5 26l12 5-12 1c-19 1-16 19 5 24l17 5-22 1-23 1v-35zm84 23-7-11 11 7 11 6 5-9 6-9-15-12c-8-7-15-16-15-21v-9l23 1h22l-18 8-19 7 16 13c20 17 20 27 1 34l-14 6-7-11zm53 5c-4-3-7-19-7-35v-29l18 3 17 3 3 21 3 21-14 11-14 12-6-7zm23-28c0-8-4-17-10-20l-10-6v52l10-6c6-3 10-12 10-20zm29 33c0-2-1-18-2-36l-2-32h21l-4 35c-3 29-9 44-13 33zm-932-29 7-23 4 13c2 7-1 18-6 23l-11 11 6-24zm345-9v-35l5 18c2 9 2 25 0 35l-5 17v-35zm631 14-6-16 17-16 16-16v64h-10c-6 0-13-7-17-16zm14-16-5-13-1 19c-1 11 2 17 5 13 3-3 4-12 1-19zm-605 2v-25l5 13c2 6 2 18 0 25l-5 12v-25zm48 1c0-11 4-22 9-25l8-5-5 24c-5 30-12 33-12 6zm36-18-7-18 12 12c7 7 10 15 7 18s-9-2-12-12zm-499-4c7-7 15-10 18-7s-2 9-12 12l-18 7 12-12zm320 0c7-7 15-10 18-7s-2 9-12 12l-18 7 12-12z"/></g><g fill="#504a5d" transform="matrix(.1 0 0 -.1 0 300)"><path d="M490 1601v-11l-17-1-18-1 30-8 30-8-47-1-47-1-4 18-5 17-1-21-1-21 53-6 52-5 10 9c5 5 19 9 32 9h23v30h-22c-13 0-33 3-45 6l-23 6v-11zm-162-38c7-3 16-2 19 1 4 3-2 6-13 5l-19-1 13-5zm-10-40c7-3 16-2 19 1 4 3-2 6-13 5l-19-1 13-5zm172-8c0-16 16-20 24-6l6 9-15 6-15 5v-14zm948-22c7-3 16-2 19 1 4 3-2 6-13 5l-19-1 13-5zm162-3v-10h41l-6 10c-3 6-13 10-21 10s-14-4-14-10zm-1290-26v-25l10 6 10 6v-10c0-6-4-11-9-11h-8l5-25 4-25h33l11 45 11 46-8 4c-4 3-9-2-13-10l-5-15-16 6-16 6 12 14 11 14h-32v-26zm1700 16-14-9 16-6c10-4 22-5 29-3l11 4-14 11-14 12-14-9zm-1587-15-23-16v-18c0-10 8-25 18-34l19-17h22c27 0 61 17 61 31v9l-42-2-43-3v30l23 3 23 4-4 11c-6 18-30 19-54 2zm758-1 1-19 5 13c3 7 2 16-1 19-3 4-6-2-5-13zm873-37-31-12 4-12 5-13h56l4 25c6 28 5 28-38 12zm-1492-4-12-5 6-9c8-14 21-11 28 6l5 15-7-1c-4 0-13-3-20-6zm170-15 3-23 38-9 38-10 41 15c23 8 43 19 45 26l4 12-45-1-46-1v-8c0-15-37-10-54 6-21 21-28 19-24-7zm308-7v-19l18 2 17 3 3 16 3 17h-41v-19zm94 7-5-8 26-12 26-12 26 10 27 9-2 10-2 10h-46c-25 0-48-3-50-7zm146 1v-10l10 6c6 3 10 8 10 11 0 2-4 4-10 4-5 0-10-5-10-11zm262-1-27-8-35 6-35 5 24-20 23-21h63l33 20c17 11 32 22 32 24 0 6-46 2-78-6zm255 5c-14-13-6-23 18-23h25v30h-18c-10 0-22-3-25-7zm-813-174-7-12 24-19 24-20-24 6-24 5 11-11 11-11 15 6c22 9 20 28-4 34-11 3-20 10-20 15v10l16-6 15-6-6 10c-8 13-22 13-31-1zm59-24v-40l4 23c2 12 2 30 0 40l-5 17 1-40zm28 0 1-40 7 25 7 25 8-22c4-13 12-23 17-23h9l-1 38-1 37-8-30c-4-16-8-25-9-19 0 5-8 19-16 30l-14 19v-40zm69 20-12-14 7-21 6-20h39v19l-14-5-13-5-6 14c-3 8-2 20 3 27l8 13 12-8 13-8-7 11c-10 16-21 15-36-3zm60-20v-35l23 1 22 1-17 5c-21 5-23 19-5 26l12 5-12 1c-19 1-16 19 5 24l17 5-22 1-23 1v-35zm84 23-7-11 11 7 11 6 5-9 6-9-15-12c-8-7-15-16-15-21v-9l23 1h22l-18 8-19 7 16 13c20 17 20 27 1 34l-14 6-7-11zm53 5c-4-3-7-19-7-35v-29l18 3 17 3 3 21 3 21-14 11-14 12-6-7zm23-28c0-8-4-17-10-20l-10-6v52l10-6c6-3 10-12 10-20zm29 33c0-2-1-18-2-36l-2-32h21l-4 35c-3 29-9 44-13 33zm-932-29 7-23 4 13c2 7-1 18-6 23l-11 11 6-24zm345-9v-35l5 18c2 9 2 25 0 35l-5 17v-35zm631 14-6-16 17-16 16-16v64h-10c-6 0-13-7-17-16zm14-16-5-13-1 19c-1 11 2 17 5 13 3-3 4-12 1-19zm-605 2v-25l5 13c2 6 2 18 0 25l-5 12v-25zm48 1c0-11 4-22 9-25l8-5-5 24c-5 30-12 33-12 6zm36-18-7-18 12 12c7 7 10 15 7 18s-9-2-12-12zm-499-4c7-7 15-10 18-7s-2 9-12 12l-18 7 12-12zm320 0c7-7 15-10 18-7s-2 9-12 12l-18 7 12-12z"/></g></g></svg>
