<?xml version="1.0" standalone="no"?>
<!DOCTYPE svg PUBLIC "-//W3C//DTD SVG 20010904//EN"
 "http://www.w3.org/TR/2001/REC-SVG-20010904/DTD/svg10.dtd">
<svg version="1.0" xmlns="http://www.w3.org/2000/svg"
 width="1280.000000pt" height="1280.000000pt" viewBox="0 0 1280.000000 1280.000000"
 preserveAspectRatio="xMidYMid meet">
<metadata>
Created by potrace 1.14, written by Peter Selinger 2001-2017
</metadata>
<g transform="translate(0.000000,1280.000000) scale(0.100000,-0.100000)"
fill="#000000" stroke="none">
<path d="M3526 7114 c-64 -23 -332 -65 -446 -69 -58 -3 -106 -5 -107 -5 -4 0
41 -139 54 -164 12 -23 19 -27 41 -23 15 3 103 21 196 41 93 20 171 35 173 33
11 -12 -357 -391 -504 -519 -51 -45 -93 -87 -93 -94 0 -19 100 -124 117 -124
9 0 56 38 104 85 153 147 265 204 415 213 107 5 145 -5 202 -53 109 -94 90
-299 -35 -372 l-42 -24 -19 44 c-26 59 -84 121 -135 146 -167 79 -357 -8 -357
-164 0 -152 132 -233 360 -222 214 10 380 98 448 239 88 180 27 411 -132 503
-110 63 -288 65 -407 5 -35 -18 -6 13 140 156 101 98 196 187 212 196 45 27
38 54 -35 125 -70 68 -82 71 -150 47z m-142 -1016 c14 -13 32 -40 41 -60 l15
-36 -30 -7 c-41 -9 -117 4 -142 24 -26 21 -27 70 -2 88 29 21 89 16 118 -9z"/>
<path d="M6599 7115 c-62 -23 -339 -66 -449 -70 -58 -3 -106 -5 -107 -5 -5 -1
32 -121 48 -152 20 -40 37 -46 83 -28 22 8 315 70 332 70 25 0 -337 -376 -493
-512 -57 -49 -103 -97 -103 -107 0 -18 99 -121 117 -121 5 0 47 35 92 78 174
163 332 237 481 226 93 -7 155 -46 190 -120 23 -47 44 -178 26 -167 -5 4 -7
-5 -4 -21 3 -15 3 -24 0 -21 -8 7 -33 -46 -26 -56 3 -5 2 -8 -3 -7 -4 1 -30
-12 -57 -30 -28 -18 -52 -32 -55 -32 -4 0 -19 28 -36 61 -47 98 -126 149 -238
154 -93 4 -160 -26 -210 -96 -22 -30 -27 -48 -27 -96 1 -153 131 -232 360
-220 164 9 291 58 377 143 50 50 87 123 76 150 -4 11 -3 15 5 11 15 -10 29 82
25 162 -11 213 -214 356 -452 319 -31 -5 -81 -20 -111 -34 l-55 -25 160 161
c88 88 181 175 207 193 26 18 50 38 53 46 13 33 -109 162 -151 160 -10 -1 -35
-7 -55 -14z m-14 -945 c10 -11 16 -20 13 -20 -3 0 -13 9 -23 20 -10 11 -16 20
-13 20 3 0 13 -9 23 -20z m-222 -44 c-3 -6 0 -5 7 1 11 10 17 10 29 0 12 -10
13 -9 6 3 -10 16 1 10 55 -35 l25 -20 -20 25 -20 25 22 -19 c13 -10 20 -22 18
-26 -3 -4 2 -24 10 -43 l15 -35 -38 -7 c-47 -8 -117 7 -143 31 -24 22 -24 60
0 81 11 9 18 20 16 23 -2 4 2 7 10 7 8 0 11 -5 8 -11z"/>
<path d="M1377 7033 c-4 -49 -13 -126 -22 -173 -42 -246 -59 -541 -41 -722 l8
-78 31 -1 c31 -2 31 -2 5 -6 -21 -3 -28 -10 -28 -27 0 -12 3 -26 7 -29 3 -4 8
-18 9 -32 1 -14 11 -42 21 -63 16 -33 22 -37 51 -34 18 2 52 9 75 16 l42 12 7
71 c6 61 29 135 79 258 11 28 9 36 -21 88 -18 32 -36 55 -40 50 -4 -4 -24 -46
-45 -93 -21 -47 -40 -87 -43 -90 -13 -14 8 385 27 490 30 170 49 259 68 313
13 35 14 53 7 65 -9 15 -147 69 -180 71 -7 1 -13 -33 -17 -86z m66 -730 c-7
-2 -21 -2 -30 0 -10 3 -4 5 12 5 17 0 24 -2 18 -5z m-20 -60 c-7 -2 -19 -2
-25 0 -7 3 -2 5 12 5 14 0 19 -2 13 -5z m-13 -57 c0 -2 -7 -6 -15 -10 -8 -3
-15 -1 -15 4 0 6 7 10 15 10 8 0 15 -2 15 -4z m-27 -73 c-7 -2 -19 -2 -25 0
-7 3 -2 5 12 5 14 0 19 -2 13 -5z"/>
<path d="M2065 7059 c4 -35 8 -104 8 -154 l2 -90 -173 0 -172 0 0 -66 c0 -101
-3 -99 188 -100 l162 0 1 -117 c0 -64 2 -140 4 -168 l4 -50 -102 0 c-87 1
-110 -3 -154 -23 -103 -46 -155 -140 -132 -241 14 -63 53 -108 118 -139 49
-23 69 -26 161 -26 86 0 113 4 151 21 57 26 94 66 115 122 9 23 19 42 22 42 8
0 128 -88 141 -104 23 -28 39 -18 82 54 36 61 40 72 28 87 -20 23 -123 89
-196 124 l-61 29 -7 113 c-3 61 -5 153 -3 202 l3 90 30 2 c45 4 177 24 198 29
14 4 17 17 17 68 0 92 -7 97 -110 80 -47 -7 -97 -13 -112 -13 l-28 -1 0 73 c0
41 6 94 14 119 7 25 10 51 7 57 -10 16 -60 29 -142 37 l-70 7 6 -64z m-6 -895
c27 -6 31 -11 31 -38 0 -74 -84 -113 -183 -85 -62 17 -77 91 -25 117 26 12
128 15 177 6z"/>
<path d="M4450 7085 c0 -20 -13 -129 -29 -243 -47 -332 -55 -472 -40 -657 13
-154 45 -300 71 -316 9 -6 65 2 123 19 29 8 30 11 36 79 7 78 17 113 60 219
l29 70 -32 57 c-18 31 -36 56 -39 57 -4 0 -9 -10 -13 -23 -3 -13 -21 -56 -40
-97 -40 -85 -38 -92 -36 105 1 141 5 181 31 335 25 151 46 244 66 302 14 39
14 49 3 62 -10 13 -158 66 -183 66 -4 0 -7 -16 -7 -35z"/>
<path d="M5131 7084 c4 -22 9 -92 9 -157 l0 -119 -172 3 -173 2 4 -64 c5 -104
-4 -99 186 -99 l165 0 1 -152 c0 -84 2 -160 4 -169 2 -13 -11 -15 -99 -15 -86
1 -109 -3 -154 -23 -66 -30 -120 -91 -129 -146 -20 -113 17 -189 115 -236 40
-20 63 -23 152 -24 64 0 120 5 143 14 69 24 137 99 137 151 0 36 30 22 133
-63 40 -33 50 -37 63 -26 22 18 74 110 74 131 0 18 -101 88 -196 136 -73 37
-70 26 -73 277 l-2 161 106 12 c146 16 149 18 142 99 -3 36 -10 69 -16 72 -6
4 -48 1 -93 -5 -46 -7 -96 -13 -111 -13 l-29 -1 6 98 c3 53 6 110 8 127 3 26
-1 31 -35 42 -21 7 -69 16 -107 19 l-69 7 10 -39z m-226 -354 c3 -5 -1 -10
-10 -10 -9 0 -13 5 -10 10 3 6 8 10 10 10 2 0 7 -4 10 -10z m210 -565 c11 -2
26 -4 33 -4 7 -1 12 -15 12 -35 0 -84 -131 -126 -217 -70 -27 17 -32 74 -9 93
31 26 95 31 181 16z"/>
<path d="M7290 7025 l0 -85 175 0 175 0 0 -381 c0 -301 3 -379 13 -373 8 6 8
3 -1 -9 -15 -18 -7 -41 10 -31 7 4 8 2 4 -5 -4 -6 -12 -9 -17 -6 -5 4 -9 -41
-9 -110 l0 -116 108 3 107 3 -2 95 c-1 52 -2 115 -2 140 0 25 0 212 2 415 l2
370 178 3 177 2 0 85 0 85 -460 0 -460 0 0 -85z m412 -850 c2 3 5 -2 5 -10 0
-19 0 -19 -23 7 -12 14 -13 18 -3 10 9 -6 18 -10 21 -7z m58 -10 c-5 -7 -9
-14 -7 -16 1 -2 0 -3 -2 -1 -11 7 -7 29 5 29 9 0 11 -4 4 -12z m46 -1 c-1 -8
-6 -17 -12 -21 -5 -4 -6 -4 -2 1 4 5 3 14 -2 21 -7 8 -5 12 4 12 8 0 13 -6 12
-13z m29 7 c3 -5 2 -12 -3 -15 -5 -3 -9 1 -9 9 0 17 3 19 12 6z"/>
<path d="M8290 7099 c0 -11 32 -119 107 -354 19 -60 36 -117 38 -125 5 -21 78
-264 120 -395 19 -60 44 -144 54 -185 11 -41 24 -87 30 -102 l11 -28 129 0
129 0 15 48 c47 145 68 227 64 244 -3 10 -1 16 3 13 7 -4 37 68 44 108 4 22
28 100 62 207 65 204 174 562 174 571 0 5 -47 9 -103 9 l-104 0 -87 -320 c-48
-175 -89 -327 -91 -337 -2 -10 -17 -65 -33 -123 -16 -58 -35 -131 -42 -162
-12 -61 -25 -73 -35 -35 -13 48 -26 98 -60 232 -20 77 -73 275 -118 440 l-82
300 -112 3 c-82 2 -113 -1 -113 -9z"/>
<path d="M4233 5316 c-86 -39 -64 -125 42 -163 41 -15 51 -23 53 -45 3 -22 -2
-29 -23 -34 -33 -8 -75 10 -75 32 0 13 -6 15 -27 9 -37 -9 -38 -11 -19 -39 22
-35 53 -49 103 -49 55 0 90 24 99 68 9 49 -14 79 -78 103 -56 21 -75 40 -65
66 9 24 64 21 77 -4 13 -24 48 -26 57 -4 9 23 -37 64 -78 69 -18 3 -48 -1 -66
-9z"/>
<path d="M4889 5307 c-44 -30 -60 -65 -60 -131 0 -95 48 -152 126 -150 52 1
81 17 101 55 18 35 18 35 -19 44 -20 5 -27 3 -27 -7 0 -8 -8 -22 -18 -31 -47
-43 -102 3 -102 85 0 117 80 150 125 51 0 -1 11 0 23 4 44 11 12 77 -47 93
-52 14 -64 13 -102 -13z"/>
<path d="M1815 5287 c-56 -56 -56 -160 -1 -224 33 -38 102 -40 140 -4 86 81
38 261 -69 261 -28 0 -45 -8 -70 -33z m120 -23 c44 -47 31 -172 -19 -196 -35
-15 -81 5 -96 43 -19 46 -8 138 20 161 31 25 67 22 95 -8z"/>
<path d="M3835 5287 c-56 -56 -56 -160 -1 -224 33 -38 102 -40 140 -4 86 81
38 261 -69 261 -28 0 -45 -8 -70 -33z m120 -23 c44 -47 31 -172 -19 -196 -35
-15 -81 5 -96 43 -19 46 -8 138 20 161 31 25 67 22 95 -8z"/>
<path d="M4430 5175 l0 -145 30 0 30 0 0 145 0 145 -30 0 -30 0 0 -145z"/>
<path d="M4550 5175 l0 -145 25 0 c24 0 24 0 27 115 l3 115 50 -113 c51 -112
51 -112 88 -115 l37 -3 0 145 0 146 -31 0 -32 0 7 -107 6 -108 -46 108 -47
107 -43 0 -44 0 0 -145z"/>
<path d="M5110 5175 l0 -145 100 0 100 0 0 25 c0 24 -2 25 -70 25 l-70 0 0 40
0 40 50 0 c47 0 50 2 50 25 0 23 -3 25 -50 25 l-50 0 0 35 0 35 70 0 c63 0 70
2 70 20 0 19 -7 20 -100 20 l-100 0 0 -145z"/>
<path d="M5474 5295 c-29 -29 -28 -59 2 -63 14 -2 24 5 32 23 13 28 33 32 52
10 17 -20 4 -52 -45 -104 -54 -59 -75 -91 -75 -113 0 -16 11 -18 95 -18 88 0
95 1 95 20 0 18 -7 20 -66 20 l-66 0 59 64 c65 69 77 98 58 144 -22 50 -98 60
-141 17z"/>
<path d="M5699 5307 c-32 -25 -43 -62 -43 -140 0 -61 5 -83 20 -104 43 -58
113 -49 147 17 14 26 17 53 15 107 -4 92 -27 127 -84 130 -21 2 -46 -3 -55
-10z m70 -41 c8 -9 11 -44 9 -96 -2 -67 -6 -85 -21 -94 -31 -19 -47 17 -47
100 0 53 4 77 16 88 19 20 28 20 43 2z"/>
<path d="M5913 5303 c-23 -12 -33 -24 -33 -40 0 -26 3 -27 31 -13 18 10 19 7
19 -85 0 -95 0 -95 -25 -95 -18 0 -25 -5 -25 -20 0 -18 7 -20 80 -20 73 0 80
2 80 20 0 15 -7 20 -25 20 l-25 0 0 125 c0 123 0 125 -22 124 -13 0 -38 -8
-55 -16z"/>
<path d="M6115 5224 c-60 -129 -59 -134 10 -134 54 0 55 0 55 -30 0 -25 4 -30
25 -30 21 0 25 5 25 30 0 20 5 30 15 30 9 0 15 9 15 25 0 16 -6 25 -15 25 -12
0 -15 17 -15 90 l0 90 -35 0 c-34 0 -36 -2 -80 -96z m65 -24 c0 -60 0 -60 -29
-60 l-29 0 26 60 c15 33 28 60 29 60 2 0 3 -27 3 -60z"/>
<path d="M1450 5175 c0 -113 2 -135 15 -135 12 0 15 20 16 113 l1 112 37 -110
c30 -89 42 -111 58 -113 22 -3 26 4 77 153 l25 70 0 -112 c1 -94 4 -113 16
-113 13 0 15 22 15 135 l0 135 -24 0 c-22 0 -28 -10 -62 -115 -21 -63 -41
-111 -45 -107 -4 4 -24 55 -44 115 -34 95 -40 107 -61 107 l-24 0 0 -135z"/>
<path d="M2077 5175 c36 -108 48 -135 63 -135 15 0 27 27 63 135 39 116 43
135 28 135 -13 0 -25 -27 -51 -115 -19 -63 -38 -111 -41 -107 -3 4 -21 55 -39
115 -26 83 -37 107 -51 107 -15 0 -12 -17 28 -135z"/>
<path d="M2300 5175 c0 -113 2 -135 15 -135 13 0 15 22 15 135 0 113 -2 135
-15 135 -13 0 -15 -22 -15 -135z"/>
<path d="M2410 5175 l0 -136 88 3 c106 4 116 22 15 26 l-73 3 0 49 0 50 55 0
c42 0 55 3 55 15 0 12 -13 15 -55 15 l-55 0 0 45 0 45 70 0 c40 0 70 4 70 10
0 6 -35 10 -85 10 l-85 0 0 -135z"/>
<path d="M2673 5284 c-13 -21 -15 -32 -6 -55 10 -26 8 -32 -19 -59 -25 -26
-29 -36 -24 -62 12 -63 66 -90 127 -65 29 11 38 11 62 -1 25 -12 31 -12 38 -1
6 10 3 15 -9 17 -29 6 -32 16 -17 65 12 41 12 47 -1 47 -8 0 -17 -8 -20 -17
-19 -59 -19 -59 -53 -10 -17 26 -27 47 -21 47 20 0 50 40 50 68 0 37 -17 52
-57 52 -24 0 -37 -7 -50 -26z m75 -26 c4 -32 -34 -60 -49 -37 -12 20 -11 43 3
57 20 20 43 9 46 -20z m-18 -134 c37 -52 32 -67 -21 -62 -46 4 -70 44 -49 82
19 36 32 33 70 -20z"/>
<path d="M2927 5176 c-40 -121 -43 -136 -28 -136 13 0 22 13 31 45 l13 45 47
0 47 0 13 -45 c9 -34 18 -45 32 -45 14 0 18 5 14 18 -62 193 -84 247 -103 250
-18 3 -26 -13 -66 -132z m80 52 c7 -24 15 -51 18 -60 6 -15 1 -18 -35 -18 -36
0 -41 3 -35 18 3 9 11 36 18 60 6 23 14 42 17 42 3 0 11 -19 17 -42z"/>
<path d="M3150 5201 c0 -93 3 -112 20 -134 25 -32 69 -42 116 -27 50 17 64 55
64 175 0 88 -1 95 -20 95 -19 0 -20 -7 -20 -109 0 -102 -2 -111 -22 -125 -31
-22 -64 -20 -88 4 -17 17 -20 33 -20 125 0 87 -3 105 -15 105 -12 0 -15 -19
-15 -109z"/>
<path d="M3420 5175 l0 -135 60 0 c107 0 150 41 150 146 0 50 -3 59 -34 90
-32 32 -38 34 -105 34 l-71 0 0 -135z m112 104 c50 -13 72 -55 65 -118 -7 -61
-41 -91 -103 -91 l-44 0 0 110 c0 124 -1 123 82 99z"/>
<path d="M3700 5175 c0 -113 2 -135 15 -135 13 0 15 22 15 135 0 113 -2 135
-15 135 -13 0 -15 -22 -15 -135z"/>
<path d="M6290 5060 c0 -27 3 -30 30 -30 27 0 30 3 30 30 0 27 -3 30 -30 30
-27 0 -30 -3 -30 -30z"/>
</g>
</svg>
